<?xml version="1.0" standalone="no"?>
<!DOCTYPE svg PUBLIC "-//W3C//DTD SVG 20010904//EN"
 "http://www.w3.org/TR/2001/REC-SVG-20010904/DTD/svg10.dtd">
<svg version="1.0" xmlns="http://www.w3.org/2000/svg"
 width="210.000000pt" height="210.000000pt" viewBox="0 0 210.000000 210.000000"
 preserveAspectRatio="xMidYMid meet">
<metadata>
Created by potrace 1.11, written by Peter Selinger 2001-2013
</metadata>
<g transform="translate(0.000000,210.000000) scale(0.100000,-0.100000)"
fill="#000000" stroke="none">
<path d="M662 2043 c-36 -17 -158 -135 -200 -193 -15 -19 -34 -43 -44 -53 -10
-10 -18 -24 -18 -32 0 -7 -6 -20 -13 -27 -20 -22 -67 -97 -67 -108 0 -10 -38
-69 -51 -80 -4 -3 -10 -21 -14 -40 -4 -19 -20 -53 -35 -75 -15 -22 -31 -56
-35 -75 -4 -19 -14 -47 -21 -62 -19 -37 -19 -152 1 -168 8 -7 15 -17 15 -22 0
-5 8 -20 18 -32 14 -18 23 -21 40 -15 13 5 22 4 22 -1 0 -17 97 38 102 58 10
37 -3 81 -25 84 -26 4 -28 32 -10 153 15 103 37 178 64 217 11 14 19 31 19 37
0 6 5 11 10 11 6 0 10 4 10 10 0 17 123 192 160 229 48 47 128 103 134 93 12
-20 27 -142 25 -204 -1 -38 -13 -126 -25 -196 -13 -70 -28 -167 -34 -217 -13
-115 -39 -265 -47 -278 -4 -6 -8 -35 -10 -64 -6 -80 36 -120 85 -81 13 11 19
-42 14 -132 -2 -40 18 -218 35 -310 4 -19 8 -42 9 -50 5 -43 56 -214 71 -237
23 -36 61 -73 76 -73 6 0 26 -14 44 -32 33 -32 34 -32 80 -19 36 9 60 25 98
66 72 77 85 94 85 110 0 7 4 16 9 20 16 9 64 87 94 150 16 33 36 76 46 95 24
48 63 211 89 380 20 122 1 262 -48 363 -29 61 -78 127 -93 127 -5 0 -24 12
-44 27 -34 26 -42 28 -143 28 -71 0 -112 -4 -122 -13 -18 -15 -68 -12 -68 4 0
6 11 26 25 45 13 19 43 66 66 104 47 77 129 168 171 191 25 13 27 12 34 -9 4
-12 25 -48 47 -81 21 -32 50 -86 64 -120 13 -33 28 -70 33 -81 24 -54 66 -183
97 -300 18 -71 41 -152 49 -180 31 -98 64 -228 126 -495 30 -130 49 -180 67
-180 12 0 6 197 -8 305 -7 50 -26 146 -41 215 -16 69 -32 141 -35 160 -4 19
-10 49 -15 65 -5 17 -17 62 -28 100 -11 39 -30 104 -42 145 -13 41 -24 82 -25
90 -3 24 -15 62 -35 107 -11 22 -17 51 -15 63 2 13 2 20 -2 17 -3 -4 -19 19
-35 51 -104 199 -187 260 -285 208 -33 -17 -143 -121 -143 -135 0 -5 -3 -11
-8 -13 -8 -3 -52 -73 -94 -148 -14 -25 -33 -67 -42 -95 -9 -27 -30 -75 -47
-105 l-29 -55 5 70 c3 38 10 86 15 106 11 39 15 65 26 171 3 37 9 66 13 64 3
-2 4 48 1 112 -6 128 -16 157 -75 217 -38 40 -70 44 -123 18z m533 -724 c22
-10 47 -24 55 -31 28 -23 60 -70 54 -79 -3 -5 -1 -9 5 -9 5 0 13 -10 17 -22 4
-13 11 -26 16 -29 12 -8 31 -197 22 -229 -4 -14 -8 -29 -10 -35 -2 -5 -10 -50
-18 -99 -9 -48 -22 -116 -31 -150 -16 -63 -63 -187 -74 -196 -3 -3 -19 -30
-34 -60 -15 -30 -39 -73 -52 -95 -30 -50 -104 -127 -115 -120 -5 3 -11 19 -15
36 -4 17 -13 33 -21 36 -8 3 -14 15 -14 28 0 12 -9 34 -21 49 -11 14 -18 26
-15 26 3 0 -6 17 -20 37 -13 20 -27 48 -30 62 -3 14 -11 49 -19 76 -8 28 -18
68 -24 90 -19 78 -29 290 -18 360 4 22 9 60 13 85 3 25 9 47 12 50 4 3 7 19 8
35 0 17 3 44 6 60 15 78 17 81 86 112 83 36 175 41 237 12z"/>
<path d="M1611 1961 c-7 -5 -21 -7 -30 -4 -9 2 -26 -6 -37 -19 -17 -19 -20
-29 -12 -55 5 -18 13 -33 19 -33 18 0 39 -28 39 -52 0 -13 6 -32 14 -43 7 -11
24 -54 36 -95 12 -41 28 -87 36 -101 7 -14 18 -48 24 -75 6 -27 16 -65 24 -84
11 -29 48 -143 51 -160 0 -3 8 -21 17 -40 9 -19 19 -52 23 -73 3 -21 17 -71
31 -113 13 -41 24 -85 24 -97 1 -31 26 -61 45 -54 8 4 20 18 25 32 13 34 13
142 0 150 -6 4 -10 18 -10 33 1 24 -14 87 -64 267 -10 33 -26 93 -36 132 -11
40 -23 81 -28 90 -5 10 -13 38 -17 63 -4 24 -11 51 -15 60 -13 24 -42 91 -45
104 -10 37 -18 56 -26 56 -4 0 -11 17 -15 38 -10 55 -45 90 -73 73z"/>
</g>
</svg>
